<mxfile host="app.diagrams.net" agent="Mozilla/5.0 (Macintosh; Intel Mac OS X 10_15_7) AppleWebKit/605.1.15 (KHTML, like Gecko) Version/18.1.1 Safari/605.1.15" version="26.0.4">
  <diagram name="Page-1" id="K9FGwHe7gJUKCd-b1xVZ">
    <mxGraphModel dx="1664" dy="1895" grid="1" gridSize="10" guides="1" tooltips="1" connect="1" arrows="1" fold="1" page="1" pageScale="1" pageWidth="827" pageHeight="1169" math="0" shadow="0">
      <root>
        <mxCell id="0" />
        <mxCell id="1" parent="0" />
        <mxCell id="b7_CI8JlIdR9GMm7OdIt-65" value="" style="edgeStyle=orthogonalEdgeStyle;rounded=0;orthogonalLoop=1;jettySize=auto;html=1;entryX=0.441;entryY=0.01;entryDx=0;entryDy=0;entryPerimeter=0;" edge="1" parent="1" source="2" target="b7_CI8JlIdR9GMm7OdIt-25">
          <mxGeometry relative="1" as="geometry">
            <mxPoint x="120" y="180" as="targetPoint" />
          </mxGeometry>
        </mxCell>
        <mxCell id="b7_CI8JlIdR9GMm7OdIt-68" value="" style="edgeStyle=orthogonalEdgeStyle;rounded=0;orthogonalLoop=1;jettySize=auto;html=1;entryX=0.469;entryY=0;entryDx=0;entryDy=0;entryPerimeter=0;" edge="1" parent="1" source="2" target="b7_CI8JlIdR9GMm7OdIt-32">
          <mxGeometry relative="1" as="geometry">
            <mxPoint x="710" y="170" as="targetPoint" />
            <Array as="points">
              <mxPoint x="680" y="144" />
            </Array>
          </mxGeometry>
        </mxCell>
        <mxCell id="b7_CI8JlIdR9GMm7OdIt-69" style="edgeStyle=orthogonalEdgeStyle;rounded=0;orthogonalLoop=1;jettySize=auto;html=1;entryX=0.5;entryY=0;entryDx=0;entryDy=0;" edge="1" parent="1" source="2" target="b7_CI8JlIdR9GMm7OdIt-29">
          <mxGeometry relative="1" as="geometry" />
        </mxCell>
        <mxCell id="2" value="Angajat" style="swimlane;fontStyle=1;align=center;verticalAlign=top;childLayout=stackLayout;horizontal=1;startSize=33.142857142857146;horizontalStack=0;resizeParent=1;resizeParentMax=0;resizeLast=0;collapsible=0;marginBottom=0;" parent="1" vertex="1">
          <mxGeometry x="286" y="20" width="256" height="248.00285714285715" as="geometry" />
        </mxCell>
        <mxCell id="3" value="&#x9;•&#x9;string nume&#xa;&#x9;•&#x9;string functie&#xa;&#x9;•&#x9;int oraInceput&#xa;&#x9;•&#x9;int oraSfarsit&#xa;&#x9;•&#x9;double salariu" style="text;strokeColor=none;fillColor=none;align=left;verticalAlign=top;spacingLeft=4;spacingRight=4;overflow=hidden;rotatable=0;points=[[0,0.5],[1,0.5]];portConstraint=eastwest;" parent="2" vertex="1">
          <mxGeometry y="33.142857142857146" width="256" height="76.86" as="geometry" />
        </mxCell>
        <mxCell id="5" style="line;strokeWidth=1;fillColor=none;align=left;verticalAlign=middle;spacingTop=-1;spacingLeft=3;spacingRight=3;rotatable=0;labelPosition=right;points=[];portConstraint=eastwest;strokeColor=inherit;" parent="2" vertex="1">
          <mxGeometry y="110.00285714285715" width="256" height="8" as="geometry" />
        </mxCell>
        <mxCell id="9" value="&#x9;•&#x9;Angajat(const string&amp; nume, const string&amp; functie, int oraInceput, int oraSfarsit, double salariu)&#xa;&#x9;•&#x9;virtual ~Angajat()&#xa;&#x9;•&#x9;virtual void afiseazaDetalii() const&#xa;&#x9;•&#x9;double getSalariu() const&#xa;&#x9;•&#x9;string getNume() const&#xa;&#x9;•&#x9;string getFunctie() const&#xa;&#x9;•&#x9;int getOraInceput() const&#xa;&#x9;•&#x9;int getOraSfarsit() const" style="text;strokeColor=none;fillColor=none;align=left;verticalAlign=top;spacingLeft=4;spacingRight=4;overflow=hidden;rotatable=0;points=[[0,0.5],[1,0.5]];portConstraint=eastwest;" parent="2" vertex="1">
          <mxGeometry y="118.00285714285715" width="256" height="130" as="geometry" />
        </mxCell>
        <mxCell id="b7_CI8JlIdR9GMm7OdIt-25" value="Barista" style="swimlane;fontStyle=1;align=center;verticalAlign=top;childLayout=stackLayout;horizontal=1;startSize=33.142857142857146;horizontalStack=0;resizeParent=1;resizeParentMax=0;resizeLast=0;collapsible=0;marginBottom=0;" vertex="1" parent="1">
          <mxGeometry x="10" y="290" width="256" height="100.00285714285715" as="geometry" />
        </mxCell>
        <mxCell id="b7_CI8JlIdR9GMm7OdIt-27" style="line;strokeWidth=1;fillColor=none;align=left;verticalAlign=middle;spacingTop=-1;spacingLeft=3;spacingRight=3;rotatable=0;labelPosition=right;points=[];portConstraint=eastwest;strokeColor=inherit;" vertex="1" parent="b7_CI8JlIdR9GMm7OdIt-25">
          <mxGeometry y="33.142857142857146" width="256" height="8" as="geometry" />
        </mxCell>
        <mxCell id="b7_CI8JlIdR9GMm7OdIt-28" value="&#x9;•&#x9;Barista(const string&amp; nume, int oraInceput, int oraSfarsit, double salariu)&#xa;&#x9;•&#x9;void afiseazaDetalii() const override" style="text;strokeColor=none;fillColor=none;align=left;verticalAlign=top;spacingLeft=4;spacingRight=4;overflow=hidden;rotatable=0;points=[[0,0.5],[1,0.5]];portConstraint=eastwest;" vertex="1" parent="b7_CI8JlIdR9GMm7OdIt-25">
          <mxGeometry y="41.142857142857146" width="256" height="58.86" as="geometry" />
        </mxCell>
        <mxCell id="b7_CI8JlIdR9GMm7OdIt-29" value="Manager" style="swimlane;fontStyle=1;align=center;verticalAlign=top;childLayout=stackLayout;horizontal=1;startSize=33.142857142857146;horizontalStack=0;resizeParent=1;resizeParentMax=0;resizeLast=0;collapsible=0;marginBottom=0;" vertex="1" parent="1">
          <mxGeometry x="285.5" y="310" width="256" height="100.00285714285715" as="geometry" />
        </mxCell>
        <mxCell id="b7_CI8JlIdR9GMm7OdIt-30" style="line;strokeWidth=1;fillColor=none;align=left;verticalAlign=middle;spacingTop=-1;spacingLeft=3;spacingRight=3;rotatable=0;labelPosition=right;points=[];portConstraint=eastwest;strokeColor=inherit;" vertex="1" parent="b7_CI8JlIdR9GMm7OdIt-29">
          <mxGeometry y="33.142857142857146" width="256" height="8" as="geometry" />
        </mxCell>
        <mxCell id="b7_CI8JlIdR9GMm7OdIt-31" value="&#x9;•&#x9;Manager(const string&amp; nume, int oraInceput, int oraSfarsit, double salariu)&#xa;&#x9;•&#x9;void afiseazaDetalii() const override" style="text;strokeColor=none;fillColor=none;align=left;verticalAlign=top;spacingLeft=4;spacingRight=4;overflow=hidden;rotatable=0;points=[[0,0.5],[1,0.5]];portConstraint=eastwest;" vertex="1" parent="b7_CI8JlIdR9GMm7OdIt-29">
          <mxGeometry y="41.142857142857146" width="256" height="58.86" as="geometry" />
        </mxCell>
        <mxCell id="b7_CI8JlIdR9GMm7OdIt-32" value="Ospatar" style="swimlane;fontStyle=1;align=center;verticalAlign=top;childLayout=stackLayout;horizontal=1;startSize=33.142857142857146;horizontalStack=0;resizeParent=1;resizeParentMax=0;resizeLast=0;collapsible=0;marginBottom=0;" vertex="1" parent="1">
          <mxGeometry x="560" y="290" width="256" height="100.00285714285715" as="geometry" />
        </mxCell>
        <mxCell id="b7_CI8JlIdR9GMm7OdIt-33" style="line;strokeWidth=1;fillColor=none;align=left;verticalAlign=middle;spacingTop=-1;spacingLeft=3;spacingRight=3;rotatable=0;labelPosition=right;points=[];portConstraint=eastwest;strokeColor=inherit;" vertex="1" parent="b7_CI8JlIdR9GMm7OdIt-32">
          <mxGeometry y="33.142857142857146" width="256" height="8" as="geometry" />
        </mxCell>
        <mxCell id="b7_CI8JlIdR9GMm7OdIt-34" value="&#x9;•&#x9;Ospatar(const string&amp; nume, int oraInceput, int oraSfarsit, double salariu)&#xa;&#x9;•&#x9;void afiseazaDetalii() const override" style="text;strokeColor=none;fillColor=none;align=left;verticalAlign=top;spacingLeft=4;spacingRight=4;overflow=hidden;rotatable=0;points=[[0,0.5],[1,0.5]];portConstraint=eastwest;" vertex="1" parent="b7_CI8JlIdR9GMm7OdIt-32">
          <mxGeometry y="41.142857142857146" width="256" height="58.86" as="geometry" />
        </mxCell>
        <mxCell id="b7_CI8JlIdR9GMm7OdIt-71" style="edgeStyle=orthogonalEdgeStyle;rounded=0;orthogonalLoop=1;jettySize=auto;html=1;entryX=0.5;entryY=0;entryDx=0;entryDy=0;exitX=-0.016;exitY=0.317;exitDx=0;exitDy=0;exitPerimeter=0;" edge="1" parent="1" source="b7_CI8JlIdR9GMm7OdIt-36" target="2">
          <mxGeometry relative="1" as="geometry" />
        </mxCell>
        <mxCell id="b7_CI8JlIdR9GMm7OdIt-78" style="edgeStyle=orthogonalEdgeStyle;rounded=0;orthogonalLoop=1;jettySize=auto;html=1;entryX=0.25;entryY=0;entryDx=0;entryDy=0;" edge="1" parent="1" source="b7_CI8JlIdR9GMm7OdIt-35" target="b7_CI8JlIdR9GMm7OdIt-55">
          <mxGeometry relative="1" as="geometry" />
        </mxCell>
        <mxCell id="b7_CI8JlIdR9GMm7OdIt-35" value="GestionareAngajati" style="swimlane;fontStyle=1;align=center;verticalAlign=top;childLayout=stackLayout;horizontal=1;startSize=33.142857142857146;horizontalStack=0;resizeParent=1;resizeParentMax=0;resizeLast=0;collapsible=0;marginBottom=0;" vertex="1" parent="1">
          <mxGeometry x="610" y="-160" width="256" height="218.00285714285715" as="geometry" />
        </mxCell>
        <mxCell id="b7_CI8JlIdR9GMm7OdIt-36" value="&#x9;•&#x9;vector&lt;unique_ptr&lt;Angajat&gt;&gt; angajati&#xa;&#x9;•&#x9;string currentCity" style="text;strokeColor=none;fillColor=none;align=left;verticalAlign=top;spacingLeft=4;spacingRight=4;overflow=hidden;rotatable=0;points=[[0,0.5],[1,0.5]];portConstraint=eastwest;" vertex="1" parent="b7_CI8JlIdR9GMm7OdIt-35">
          <mxGeometry y="33.142857142857146" width="256" height="46.86" as="geometry" />
        </mxCell>
        <mxCell id="b7_CI8JlIdR9GMm7OdIt-37" style="line;strokeWidth=1;fillColor=none;align=left;verticalAlign=middle;spacingTop=-1;spacingLeft=3;spacingRight=3;rotatable=0;labelPosition=right;points=[];portConstraint=eastwest;strokeColor=inherit;" vertex="1" parent="b7_CI8JlIdR9GMm7OdIt-35">
          <mxGeometry y="80.00285714285715" width="256" height="8" as="geometry" />
        </mxCell>
        <mxCell id="b7_CI8JlIdR9GMm7OdIt-38" value="&#x9;•&#x9;static unique_ptr&lt;Angajat&gt; creeazaAngajat(const string&amp; tip, const string&amp; nume, int oraInceput, int oraSfarsit, double salariu)&#xa;&#x9;•&#x9;void schimbaOras(const string&amp; oras)&#xa;&#x9;•&#x9;void adaugaAngajat(unique_ptr&lt;Angajat&gt; angajat, const string&amp; numeFisier)&#xa;&#x9;•&#x9;void stergeAngajat(const string&amp; nume, const string&amp; numeFisier)&#xa;&#x9;•&#x9;void afiseazaAngajati() const&#xa;&#x9;•&#x9;void citesteDinCSV(const string&amp; numeFisier)&#xa;&#x9;•&#x9;void scrieInCSV(const string&amp; numeFisier)&#xa;&#x9;•&#x9;double calculeazaTotalSalarii() const" style="text;strokeColor=none;fillColor=none;align=left;verticalAlign=top;spacingLeft=4;spacingRight=4;overflow=hidden;rotatable=0;points=[[0,0.5],[1,0.5]];portConstraint=eastwest;" vertex="1" parent="b7_CI8JlIdR9GMm7OdIt-35">
          <mxGeometry y="88.00285714285715" width="256" height="130" as="geometry" />
        </mxCell>
        <mxCell id="b7_CI8JlIdR9GMm7OdIt-39" value="Event" style="swimlane;fontStyle=1;align=center;verticalAlign=top;childLayout=stackLayout;horizontal=1;startSize=33.142857142857146;horizontalStack=0;resizeParent=1;resizeParentMax=0;resizeLast=0;collapsible=0;marginBottom=0;" vertex="1" parent="1">
          <mxGeometry x="20" y="450" width="256" height="160.00285714285715" as="geometry" />
        </mxCell>
        <mxCell id="b7_CI8JlIdR9GMm7OdIt-40" value="&#x9;•&#x9;string nume&#xa;&#x9;•&#x9;double pret" style="text;strokeColor=none;fillColor=none;align=left;verticalAlign=top;spacingLeft=4;spacingRight=4;overflow=hidden;rotatable=0;points=[[0,0.5],[1,0.5]];portConstraint=eastwest;" vertex="1" parent="b7_CI8JlIdR9GMm7OdIt-39">
          <mxGeometry y="33.142857142857146" width="256" height="46.86" as="geometry" />
        </mxCell>
        <mxCell id="b7_CI8JlIdR9GMm7OdIt-41" style="line;strokeWidth=1;fillColor=none;align=left;verticalAlign=middle;spacingTop=-1;spacingLeft=3;spacingRight=3;rotatable=0;labelPosition=right;points=[];portConstraint=eastwest;strokeColor=inherit;" vertex="1" parent="b7_CI8JlIdR9GMm7OdIt-39">
          <mxGeometry y="80.00285714285715" width="256" height="8" as="geometry" />
        </mxCell>
        <mxCell id="b7_CI8JlIdR9GMm7OdIt-42" value="&#x9;•&#x9;Event(const string&amp; nume, double pret)&#xa;&#x9;•&#x9;const string&amp; getNume() const&#xa;&#x9;•&#x9;double getPret() const&#xa;&#x9;•&#x9;void afiseazaDetalii() const" style="text;strokeColor=none;fillColor=none;align=left;verticalAlign=top;spacingLeft=4;spacingRight=4;overflow=hidden;rotatable=0;points=[[0,0.5],[1,0.5]];portConstraint=eastwest;" vertex="1" parent="b7_CI8JlIdR9GMm7OdIt-39">
          <mxGeometry y="88.00285714285715" width="256" height="72" as="geometry" />
        </mxCell>
        <mxCell id="b7_CI8JlIdR9GMm7OdIt-43" value="GestionareEvenimente" style="swimlane;fontStyle=1;align=center;verticalAlign=top;childLayout=stackLayout;horizontal=1;startSize=33.142857142857146;horizontalStack=0;resizeParent=1;resizeParentMax=0;resizeLast=0;collapsible=0;marginBottom=0;" vertex="1" parent="1">
          <mxGeometry x="29.5" y="660" width="256" height="180.00285714285715" as="geometry" />
        </mxCell>
        <mxCell id="b7_CI8JlIdR9GMm7OdIt-44" value="&#x9;•&#x9;vector&lt;Event&gt; evenimente" style="text;strokeColor=none;fillColor=none;align=left;verticalAlign=top;spacingLeft=4;spacingRight=4;overflow=hidden;rotatable=0;points=[[0,0.5],[1,0.5]];portConstraint=eastwest;" vertex="1" parent="b7_CI8JlIdR9GMm7OdIt-43">
          <mxGeometry y="33.142857142857146" width="256" height="36.86" as="geometry" />
        </mxCell>
        <mxCell id="b7_CI8JlIdR9GMm7OdIt-45" style="line;strokeWidth=1;fillColor=none;align=left;verticalAlign=middle;spacingTop=-1;spacingLeft=3;spacingRight=3;rotatable=0;labelPosition=right;points=[];portConstraint=eastwest;strokeColor=inherit;" vertex="1" parent="b7_CI8JlIdR9GMm7OdIt-43">
          <mxGeometry y="70.00285714285715" width="256" height="8" as="geometry" />
        </mxCell>
        <mxCell id="b7_CI8JlIdR9GMm7OdIt-46" value="&#x9;•&#x9;void citesteDinCSV(const string&amp; numeFisier)&#xa;&#x9;•&#x9;void scrieInCSV(const string&amp; numeFisier) const&#xa;&#x9;•&#x9;void adaugaEvent(const Event&amp; event, const string&amp; numeFisier)&#xa;&#x9;•&#x9;void eliminaEvent(const string&amp; nume, const string&amp; numeFisier)&#xa;&#x9;•&#x9;void afiseazaEvenimente() const&#xa;&#x9;•&#x9;void golesteEvenimente()" style="text;strokeColor=none;fillColor=none;align=left;verticalAlign=top;spacingLeft=4;spacingRight=4;overflow=hidden;rotatable=0;points=[[0,0.5],[1,0.5]];portConstraint=eastwest;" vertex="1" parent="b7_CI8JlIdR9GMm7OdIt-43">
          <mxGeometry y="78.00285714285715" width="256" height="102" as="geometry" />
        </mxCell>
        <mxCell id="b7_CI8JlIdR9GMm7OdIt-47" value="GestionareProduse" style="swimlane;fontStyle=1;align=center;verticalAlign=top;childLayout=stackLayout;horizontal=1;startSize=33.142857142857146;horizontalStack=0;resizeParent=1;resizeParentMax=0;resizeLast=0;collapsible=0;marginBottom=0;" vertex="1" parent="1">
          <mxGeometry x="371" y="710" width="256" height="190.00285714285715" as="geometry" />
        </mxCell>
        <mxCell id="b7_CI8JlIdR9GMm7OdIt-48" value="&#x9;•&#x9;vector&lt;Produs&gt; produse" style="text;strokeColor=none;fillColor=none;align=left;verticalAlign=top;spacingLeft=4;spacingRight=4;overflow=hidden;rotatable=0;points=[[0,0.5],[1,0.5]];portConstraint=eastwest;" vertex="1" parent="b7_CI8JlIdR9GMm7OdIt-47">
          <mxGeometry y="33.142857142857146" width="256" height="36.86" as="geometry" />
        </mxCell>
        <mxCell id="b7_CI8JlIdR9GMm7OdIt-49" style="line;strokeWidth=1;fillColor=none;align=left;verticalAlign=middle;spacingTop=-1;spacingLeft=3;spacingRight=3;rotatable=0;labelPosition=right;points=[];portConstraint=eastwest;strokeColor=inherit;" vertex="1" parent="b7_CI8JlIdR9GMm7OdIt-47">
          <mxGeometry y="70.00285714285715" width="256" height="8" as="geometry" />
        </mxCell>
        <mxCell id="b7_CI8JlIdR9GMm7OdIt-50" value="&#x9;•&#x9;void citesteDinCSV(const string&amp; numeFisier)&#xa;&#x9;•&#x9;void scrieInCSV(const string&amp; numeFisier) const&#xa;&#x9;•&#x9;void adaugaProdus(const Produs&amp; produs, const string&amp; numeFisier)&#xa;&#x9;•&#x9;void eliminaProdus(const string&amp; nume, const string&amp; numeFisier)&#xa;&#x9;•&#x9;const vector&lt;Produs&gt;&amp; getProduse() const&#xa;&#x9;•&#x9;void afiseazaProduse() const&#xa;&#x9;•&#x9;void golesteProduse()" style="text;strokeColor=none;fillColor=none;align=left;verticalAlign=top;spacingLeft=4;spacingRight=4;overflow=hidden;rotatable=0;points=[[0,0.5],[1,0.5]];portConstraint=eastwest;" vertex="1" parent="b7_CI8JlIdR9GMm7OdIt-47">
          <mxGeometry y="78.00285714285715" width="256" height="112" as="geometry" />
        </mxCell>
        <mxCell id="b7_CI8JlIdR9GMm7OdIt-75" style="edgeStyle=orthogonalEdgeStyle;rounded=0;orthogonalLoop=1;jettySize=auto;html=1;entryX=0;entryY=0.5;entryDx=0;entryDy=0;" edge="1" parent="1" source="b7_CI8JlIdR9GMm7OdIt-51" target="b7_CI8JlIdR9GMm7OdIt-48">
          <mxGeometry relative="1" as="geometry" />
        </mxCell>
        <mxCell id="b7_CI8JlIdR9GMm7OdIt-51" value="Produs" style="swimlane;fontStyle=1;align=center;verticalAlign=top;childLayout=stackLayout;horizontal=1;startSize=33.142857142857146;horizontalStack=0;resizeParent=1;resizeParentMax=0;resizeLast=0;collapsible=0;marginBottom=0;" vertex="1" parent="1">
          <mxGeometry x="300" y="450" width="256" height="210.00285714285715" as="geometry" />
        </mxCell>
        <mxCell id="b7_CI8JlIdR9GMm7OdIt-52" value="&#x9;•&#x9;string nume&#xa;&#x9;•&#x9;int stoc&#xa;&#x9;•&#x9;double costAchizitie&#xa;&#x9;•&#x9;double costVanzare" style="text;strokeColor=none;fillColor=none;align=left;verticalAlign=top;spacingLeft=4;spacingRight=4;overflow=hidden;rotatable=0;points=[[0,0.5],[1,0.5]];portConstraint=eastwest;" vertex="1" parent="b7_CI8JlIdR9GMm7OdIt-51">
          <mxGeometry y="33.142857142857146" width="256" height="66.86" as="geometry" />
        </mxCell>
        <mxCell id="b7_CI8JlIdR9GMm7OdIt-53" style="line;strokeWidth=1;fillColor=none;align=left;verticalAlign=middle;spacingTop=-1;spacingLeft=3;spacingRight=3;rotatable=0;labelPosition=right;points=[];portConstraint=eastwest;strokeColor=inherit;" vertex="1" parent="b7_CI8JlIdR9GMm7OdIt-51">
          <mxGeometry y="100.00285714285715" width="256" height="8" as="geometry" />
        </mxCell>
        <mxCell id="b7_CI8JlIdR9GMm7OdIt-54" value="&#x9;•&#x9;Produs(const string&amp; nume, int stoc, double costAchizitie, double costVanzare)&#xa;&#x9;•&#x9;const string&amp; getNume() const&#xa;&#x9;•&#x9;int getStoc() const&#xa;&#x9;•&#x9;double getCostAchizitie() const&#xa;&#x9;•&#x9;double getCostVanzare() const&#xa;&#x9;•&#x9;void afiseazaDetalii() const" style="text;strokeColor=none;fillColor=none;align=left;verticalAlign=top;spacingLeft=4;spacingRight=4;overflow=hidden;rotatable=0;points=[[0,0.5],[1,0.5]];portConstraint=eastwest;" vertex="1" parent="b7_CI8JlIdR9GMm7OdIt-51">
          <mxGeometry y="108.00285714285715" width="256" height="102" as="geometry" />
        </mxCell>
        <mxCell id="b7_CI8JlIdR9GMm7OdIt-55" value="GestionareFinante" style="swimlane;fontStyle=1;align=center;verticalAlign=top;childLayout=stackLayout;horizontal=1;startSize=33.142857142857146;horizontalStack=0;resizeParent=1;resizeParentMax=0;resizeLast=0;collapsible=0;marginBottom=0;" vertex="1" parent="1">
          <mxGeometry x="690" y="510" width="630" height="210.00285714285715" as="geometry" />
        </mxCell>
        <mxCell id="b7_CI8JlIdR9GMm7OdIt-56" value="&#x9;•&#x9;vector&lt;Eveniment&gt; evenimente&#xa;&#x9;•&#x9;vector&lt;Comanda&gt; comenzi" style="text;strokeColor=none;fillColor=none;align=left;verticalAlign=top;spacingLeft=4;spacingRight=4;overflow=hidden;rotatable=0;points=[[0,0.5],[1,0.5]];portConstraint=eastwest;" vertex="1" parent="b7_CI8JlIdR9GMm7OdIt-55">
          <mxGeometry y="33.142857142857146" width="630" height="36.86" as="geometry" />
        </mxCell>
        <mxCell id="b7_CI8JlIdR9GMm7OdIt-57" style="line;strokeWidth=1;fillColor=none;align=left;verticalAlign=middle;spacingTop=-1;spacingLeft=3;spacingRight=3;rotatable=0;labelPosition=right;points=[];portConstraint=eastwest;strokeColor=inherit;" vertex="1" parent="b7_CI8JlIdR9GMm7OdIt-55">
          <mxGeometry y="70.00285714285715" width="630" height="8" as="geometry" />
        </mxCell>
        <mxCell id="b7_CI8JlIdR9GMm7OdIt-58" value="&#x9;•&#x9;void citesteComenziDinCSV(const string&amp; numeFisier)&#xa;&#x9;•&#x9;double calculeazaPretComanda(const Comanda&amp; comanda, const GestionareProduse&amp; gestionareProduse) const&#xa;&#x9;•&#x9;double aplicaReducere(double pretTotal, bool fidelitate) const&#xa;&#x9;•&#x9;void citesteEvenimenteDinCSV(const string&amp; numeFisier)&#xa;&#x9;•&#x9;double calculeazaCostEvenimente() const&#xa;&#x9;•&#x9;void genereazaRaportCSV(const string&amp; numeFisier, const GestionareProduse&amp; gestionareProduse, const GestionareAngajati&amp; gestionareAngajati) const&#xa;&#x9;•&#x9;double calculeazaVenituriTotale(const GestionareProduse&amp; gestionareProduse) const&#xa;&#x9;•&#x9;double calculeazaCostProduse(const GestionareProduse&amp; gestionareProduse) const" style="text;strokeColor=none;fillColor=none;align=left;verticalAlign=top;spacingLeft=4;spacingRight=4;overflow=hidden;rotatable=0;points=[[0,0.5],[1,0.5]];portConstraint=eastwest;" vertex="1" parent="b7_CI8JlIdR9GMm7OdIt-55">
          <mxGeometry y="78.00285714285715" width="630" height="132" as="geometry" />
        </mxCell>
        <mxCell id="b7_CI8JlIdR9GMm7OdIt-59" value="GestionareCSV" style="swimlane;fontStyle=1;align=center;verticalAlign=top;childLayout=stackLayout;horizontal=1;startSize=33.142857142857146;horizontalStack=0;resizeParent=1;resizeParentMax=0;resizeLast=0;collapsible=0;marginBottom=0;" vertex="1" parent="1">
          <mxGeometry x="890" y="100" width="440" height="190.00285714285715" as="geometry" />
        </mxCell>
        <mxCell id="b7_CI8JlIdR9GMm7OdIt-60" value="&#x9;•&#x9;string limba&#xa;&#x9;•&#x9;unordered_map&lt;string, unordered_map&lt;string, vector&lt;string&gt;&gt;&gt; hartaHeadere" style="text;strokeColor=none;fillColor=none;align=left;verticalAlign=top;spacingLeft=4;spacingRight=4;overflow=hidden;rotatable=0;points=[[0,0.5],[1,0.5]];portConstraint=eastwest;" vertex="1" parent="b7_CI8JlIdR9GMm7OdIt-59">
          <mxGeometry y="33.142857142857146" width="440" height="36.86" as="geometry" />
        </mxCell>
        <mxCell id="b7_CI8JlIdR9GMm7OdIt-61" style="line;strokeWidth=1;fillColor=none;align=left;verticalAlign=middle;spacingTop=-1;spacingLeft=3;spacingRight=3;rotatable=0;labelPosition=right;points=[];portConstraint=eastwest;strokeColor=inherit;" vertex="1" parent="b7_CI8JlIdR9GMm7OdIt-59">
          <mxGeometry y="70.00285714285715" width="440" height="8" as="geometry" />
        </mxCell>
        <mxCell id="b7_CI8JlIdR9GMm7OdIt-62" value="&#x9;•&#x9;GestionareCSV(const string&amp; limba = &quot;ro&quot;)&#xa;&#x9;•&#x9;string getCaleFisier(const string&amp; oras, const string&amp; numeFisier)&#xa;&#x9;•&#x9;vector&lt;string&gt; getHeadere(const string&amp; numeFisier)&#xa;&#x9;•&#x9;void schimbaHeadere(const string&amp; oras, const string&amp; numeFisier)&#xa;&#x9;•&#x9;string alatura(const vector&lt;string&gt;&amp; vec, const string&amp; separator)&#xa;&#x9;•&#x9;void schimbaToateHeaderelePentruOrase(const vector&lt;string&gt;&amp; orase)" style="text;strokeColor=none;fillColor=none;align=left;verticalAlign=top;spacingLeft=4;spacingRight=4;overflow=hidden;rotatable=0;points=[[0,0.5],[1,0.5]];portConstraint=eastwest;" vertex="1" parent="b7_CI8JlIdR9GMm7OdIt-59">
          <mxGeometry y="78.00285714285715" width="440" height="112" as="geometry" />
        </mxCell>
        <mxCell id="b7_CI8JlIdR9GMm7OdIt-66" value="Mostenire" style="text;html=1;align=center;verticalAlign=middle;resizable=0;points=[];autosize=1;strokeColor=none;fillColor=none;" vertex="1" parent="1">
          <mxGeometry x="140" y="110" width="80" height="30" as="geometry" />
        </mxCell>
        <mxCell id="b7_CI8JlIdR9GMm7OdIt-67" value="Mostenire" style="text;html=1;align=center;verticalAlign=middle;resizable=0;points=[];autosize=1;strokeColor=none;fillColor=none;" vertex="1" parent="1">
          <mxGeometry x="580" y="110" width="80" height="30" as="geometry" />
        </mxCell>
        <mxCell id="b7_CI8JlIdR9GMm7OdIt-70" value="Mostenire" style="text;html=1;align=center;verticalAlign=middle;resizable=0;points=[];autosize=1;strokeColor=none;fillColor=none;" vertex="1" parent="1">
          <mxGeometry x="410" y="270" width="80" height="30" as="geometry" />
        </mxCell>
        <mxCell id="b7_CI8JlIdR9GMm7OdIt-72" value="Folosesc vectori de angajati" style="text;html=1;align=center;verticalAlign=middle;resizable=0;points=[];autosize=1;strokeColor=none;fillColor=none;" vertex="1" parent="1">
          <mxGeometry x="414" y="-150" width="170" height="30" as="geometry" />
        </mxCell>
        <mxCell id="b7_CI8JlIdR9GMm7OdIt-73" style="edgeStyle=orthogonalEdgeStyle;rounded=0;orthogonalLoop=1;jettySize=auto;html=1;entryX=0.014;entryY=0.275;entryDx=0;entryDy=0;entryPerimeter=0;" edge="1" parent="1" source="b7_CI8JlIdR9GMm7OdIt-39" target="b7_CI8JlIdR9GMm7OdIt-44">
          <mxGeometry relative="1" as="geometry">
            <Array as="points">
              <mxPoint x="148" y="630" />
              <mxPoint y="630" />
              <mxPoint y="700" />
              <mxPoint x="33" y="700" />
            </Array>
          </mxGeometry>
        </mxCell>
        <mxCell id="b7_CI8JlIdR9GMm7OdIt-74" value="Folosesc vector de obiecte event" style="edgeLabel;html=1;align=center;verticalAlign=middle;resizable=0;points=[];" vertex="1" connectable="0" parent="b7_CI8JlIdR9GMm7OdIt-73">
          <mxGeometry x="0.8515" y="-2" relative="1" as="geometry">
            <mxPoint x="64" y="-62" as="offset" />
          </mxGeometry>
        </mxCell>
        <mxCell id="b7_CI8JlIdR9GMm7OdIt-76" value="Folosesc vector de obiecte produs" style="edgeLabel;html=1;align=center;verticalAlign=middle;resizable=0;points=[];" vertex="1" connectable="0" parent="1">
          <mxGeometry x="390.00095238095287" y="679.9976190476189" as="geometry" />
        </mxCell>
        <mxCell id="b7_CI8JlIdR9GMm7OdIt-77" style="edgeStyle=orthogonalEdgeStyle;rounded=0;orthogonalLoop=1;jettySize=auto;html=1;entryX=0.003;entryY=0.086;entryDx=0;entryDy=0;entryPerimeter=0;" edge="1" parent="1" source="b7_CI8JlIdR9GMm7OdIt-47" target="b7_CI8JlIdR9GMm7OdIt-55">
          <mxGeometry relative="1" as="geometry" />
        </mxCell>
        <mxCell id="b7_CI8JlIdR9GMm7OdIt-79" value="Folosesc GestionareAngajati si GestionareProduse&lt;div&gt;pentru a calcula finantelel&lt;/div&gt;" style="text;html=1;align=center;verticalAlign=middle;resizable=0;points=[];autosize=1;strokeColor=none;fillColor=none;" vertex="1" parent="1">
          <mxGeometry x="556" y="470" width="300" height="40" as="geometry" />
        </mxCell>
      </root>
    </mxGraphModel>
  </diagram>
</mxfile>
